# xmcd CD database file
# Copyright (C) 1995 Ti Kan
#
# Track frame offsets:
#	150
#	23090
#	36545
#	58185
#	68480
#	86850
#	103295
#	118760
#	137787
#	151672
#	166232
#	180107
#	192255
#	204690
#	217045
#	236257
#	252145
#	265200
#	277932
#	293327
#	307717
#	326405
#
# Disc length: 4530 seconds
#
# Revision: 1
# Processed by: cddbd v1.4PL0 Copyright (c) Steve Scherf et al.
# Submitted via: NotifyCDPlayer(CDDB) 1.60beta5_freedb
#
DISCID=3011b016
DTITLE=Big Joe Williams - Walking Blues
DYEAR=1900
DGENRE=
TTITLE0=Levee Camp Blues
TTITLE1=Low Down Dirty Shame
TTITLE2=Gambling Man
TTITLE3=Ain't Gonna Rain No More
TTITLE4=Feel So Good
TTITLE5=Prowling Ground Hog
TTITLE6=Back Home Again
TTITLE7=Sugar Babe
TTITLE8=Tell Me Mama
TTITLE9=Studio Blues
TTITLE10=I'm a Fool About My Baby
TTITLE11=38 Pistol Blues
TTITLE12=Pearly Mae
TTITLE13=Walking Blues
TTITLE14=Highway 45
TTITLE15=Meet Me at the Bottom
TTITLE16=Skinny Mama
TTITLE17=Jockey Ride Blues
TTITLE18=Coal and Iceman Blues
TTITLE19=Army Man Blues
TTITLE20=Black Gal
TTITLE21=Pallet on the Floor
EXTD=Fantasy Records FCD-24724-2\nw/ Willie Dixon- bass, Larry Johnson- harm
EXTD=onica\n
EXTT0=
EXTT1=
EXTT2=
EXTT3=
EXTT4=
EXTT5=
EXTT6=
EXTT7=
EXTT8=
EXTT9=
EXTT10=
EXTT11=
EXTT12=
EXTT13=
EXTT14=
EXTT15=
EXTT16=
EXTT17=
EXTT18=
EXTT19=
EXTT20=
EXTT21=
PLAYORDER=
